<svg version="1.1" id="Layer_1" xmlns="http://www.w3.org/2000/svg" xmlns:xlink="http://www.w3.org/1999/xlink" x="0px" y="0px"
	 width="100%" viewBox="0 0 368 752" enable-background="new 0 0 368 752" xml:space="preserve">
<path fill="#000000" opacity="1.000000" stroke="none" 
	d="
M270.435699,467.271790 
	C293.984070,471.486816 312.798279,482.297729 324.835358,503.031311 
	C332.057556,515.471436 335.438782,529.171082 336.238525,543.501038 
	C336.377655,545.994568 336.561462,548.764221 333.961975,550.197876 
	C331.209015,551.716187 329.281799,549.540405 327.311493,548.074951 
	C313.774384,538.005981 298.345978,536.285400 282.152863,537.684998 
	C260.993805,539.513794 241.314346,546.990662 221.459442,553.665771 
	C198.983887,561.221924 176.113754,565.906250 152.320938,564.230164 
	C128.888046,562.579407 107.854141,555.199219 92.846443,535.960327 
	C72.690186,510.121307 74.512993,477.818024 97.334579,454.226440 
	C101.079247,450.355438 102.590759,446.516632 102.880783,441.128662 
	C104.810135,405.285706 120.897697,376.951447 149.472137,355.523956 
	C158.003189,349.126678 166.569595,342.778534 174.282562,335.378693 
	C181.032578,328.902740 185.909241,321.376343 188.191757,312.139069 
	C189.212952,308.006317 187.837357,306.304474 184.066422,305.360077 
	C177.382874,303.686157 170.612076,303.308563 163.759109,303.254364 
	C154.839844,303.183868 146.237259,301.535950 138.204529,297.384125 
	C133.368805,294.884705 130.157181,290.950592 127.965088,286.159271 
	C125.356216,280.457001 126.698143,276.925232 132.560150,274.683044 
	C138.637787,272.358398 144.654755,269.965790 150.293198,266.689636 
	C157.084274,262.743744 162.456650,257.533417 165.806671,250.274887 
	C168.271942,244.933380 171.834000,240.280212 176.239594,236.372131 
	C178.214706,234.620041 178.710556,232.900192 178.225037,230.245743 
	C176.848816,222.721756 175.529144,215.154694 174.848404,207.545456 
	C174.170013,199.962219 177.346405,198.056915 184.077789,201.239288 
	C190.765213,204.400864 196.245651,209.204147 201.705078,214.473465 
	C204.402939,209.296661 203.235870,203.951141 204.491699,199.014038 
	C206.538132,190.968781 209.163864,189.996445 215.692001,194.933868 
	C226.124939,202.824570 234.050415,212.847900 240.384766,224.103271 
	C244.603058,231.598648 249.986877,238.008621 255.778961,244.277710 
	C281.941040,272.594330 291.733643,306.257477 287.214050,344.182617 
	C285.346924,359.849884 279.441467,374.454132 273.156738,388.815094 
	C262.833923,412.403168 260.234924,437.188202 261.232666,462.588318 
	C261.335785,465.213806 262.280853,466.641785 265.042023,466.705811 
	C266.701477,466.744263 268.355469,467.015961 270.435699,467.271790 
M267.855011,474.585846 
	C248.347656,472.638184 229.342590,475.514282 210.520309,480.414185 
	C192.036209,485.226074 174.180634,492.754333 154.802368,493.734314 
	C141.334442,494.415405 128.517670,492.391022 117.760620,483.306091 
	C115.709618,481.573883 113.219322,479.622864 115.590393,476.685638 
	C117.930725,473.786346 120.335587,475.578217 122.471512,477.384613 
	C128.368332,482.371643 135.143311,484.916718 142.832367,486.007263 
	C153.707733,487.549774 164.047409,485.409698 174.402740,482.836365 
	C178.235825,481.883820 181.317657,479.453583 183.816498,476.507965 
	C193.146225,465.510101 198.386581,452.979187 196.590103,438.340820 
	C195.038742,425.699646 188.826920,416.086945 176.553329,411.321198 
	C170.675842,409.039001 164.521790,409.083374 158.332626,410.239594 
	C156.098846,410.656891 153.356796,411.191223 152.808746,407.791565 
	C152.260544,404.390991 154.859024,403.471466 157.377472,403.025818 
	C172.704758,400.313660 186.179260,403.884491 195.565781,416.752228 
	C208.305832,434.217194 206.418762,452.603210 197.123001,470.976196 
	C196.281265,472.639862 194.424011,473.974518 195.223373,476.904510 
	C201.202637,475.313354 207.076843,473.691956 212.982559,472.194733 
	C219.032013,470.661102 218.908615,470.755554 217.049667,464.583344 
	C211.528931,446.253204 204.961243,428.239197 200.474197,409.596283 
	C198.397430,400.967651 197.184128,392.256561 197.845963,383.371368 
	C198.053360,380.587189 198.091019,376.999481 201.859360,376.947662 
	C206.136292,376.888824 205.252441,380.662842 205.268906,383.348358 
	C205.312729,390.498871 205.109970,397.603516 206.817200,404.690765 
	C211.304733,423.320099 217.589722,441.399323 223.168457,459.695190 
	C226.240860,469.771271 226.200119,469.788513 236.458969,467.586945 
	C236.922699,467.487427 237.340485,467.173920 237.968338,466.868195 
	C238.178024,464.233704 237.546707,461.689392 237.014633,459.104401 
	C235.000580,449.319519 233.681152,439.435516 232.599762,429.500366 
	C230.665726,411.731445 232.386017,393.867432 230.845001,376.082428 
	C229.533234,360.943207 226.287567,346.427704 218.404816,333.312439 
	C213.067154,324.431641 206.438232,316.644897 197.112289,311.663788 
	C196.578979,312.257263 196.280136,312.465546 196.157913,312.749817 
	C195.830826,313.510529 195.520874,314.288055 195.307007,315.086517 
	C192.830505,324.331757 187.857971,331.992126 181.218094,338.864441 
	C170.843918,349.601807 158.186905,357.511597 147.022446,367.247223 
	C124.465515,386.917297 111.351494,411.369232 110.398888,441.583801 
	C110.181450,448.480621 108.961632,454.114807 103.423538,458.745636 
	C100.421738,461.255615 98.214264,464.792999 95.918106,468.056610 
	C83.450294,485.777893 83.804794,510.444153 96.319107,528.055908 
	C106.859367,542.889465 121.386131,551.236328 138.848907,554.684082 
	C164.360886,559.720947 189.200653,556.088318 213.617569,548.062744 
	C223.367462,544.858154 231.490723,539.219360 238.419907,531.787781 
	C244.406509,525.367065 248.670166,517.850525 251.808655,509.693817 
	C257.297882,495.427795 265.598938,483.839478 280.858673,478.754669 
	C281.035370,478.695770 281.086853,478.261078 281.239471,477.901154 
	C277.232605,476.173065 272.962494,475.539124 267.855011,474.585846 
M178.314026,281.708038 
	C180.923141,281.168732 183.528107,280.608368 186.141998,280.093292 
	C228.261154,271.793427 265.325104,298.686523 269.027405,341.231628 
	C271.636505,371.214111 261.209320,397.542023 242.772003,420.854797 
	C240.736908,423.428040 239.852905,425.785675 240.062515,428.989136 
	C240.793045,440.153687 243.234085,451.034149 245.093781,462.017639 
	C245.698105,465.586914 247.060547,466.909241 250.623062,466.617126 
	C254.621780,466.289276 253.834213,463.502197 253.743484,461.119629 
	C252.588928,430.798981 259.016479,402.225861 270.862915,374.232880 
	C288.893097,331.627747 283.592651,291.281219 255.122421,254.356979 
	C249.241196,246.729340 240.969254,241.186005 236.545319,232.247131 
	C232.922409,224.926758 228.508545,217.995285 222.973007,211.937073 
	C219.806183,208.471191 217.013916,204.401901 211.989014,202.501129 
	C209.466019,209.537735 209.923203,216.632996 209.595108,223.477417 
	C209.296860,229.699188 209.533417,232.078018 200.658310,233.129013 
	C188.387680,234.582092 179.067780,241.057556 173.895599,251.724808 
	C167.198425,265.537292 155.956375,273.163971 142.696671,278.969543 
	C141.144547,279.649109 139.075012,279.543213 137.995026,282.012177 
	C151.335007,286.426422 164.400436,284.358582 178.314026,281.708038 
M230.175873,340.475525 
	C239.663483,363.264191 239.256317,387.413513 239.235672,412.823395 
	C248.346848,401.313965 253.821075,389.679077 257.664764,377.216583 
	C262.887482,360.282745 264.030609,343.179443 258.432587,326.165955 
	C249.338715,298.527771 220.986465,281.889740 192.177551,286.837311 
	C182.182632,288.553802 172.162033,290.122681 162.145615,291.711334 
	C156.067245,292.675354 149.945404,291.934235 143.832321,291.810669 
	C151.101059,295.536102 158.888412,295.990448 166.722260,295.836578 
	C173.620148,295.701111 180.402298,296.461914 186.903473,298.614105 
	C207.706787,305.500977 221.166946,320.186371 230.175873,340.475525 
M275.412109,530.684753 
	C293.346893,528.131226 310.792633,529.278015 327.651001,538.630493 
	C327.651001,536.739563 327.753143,535.921082 327.635925,535.135437 
	C325.271545,519.288086 319.665955,504.931702 308.022583,493.480103 
	C297.748627,483.375397 285.043518,482.614716 273.301453,491.168671 
	C266.265167,496.294586 262.519623,503.700623 259.289307,511.414581 
	C255.738602,519.893616 251.661728,528.039795 245.773621,535.177551 
	C245.302139,535.749084 244.456894,536.365112 245.531143,537.429504 
	C255.009308,534.692627 264.679535,532.324890 275.412109,530.684753 
M199.348755,224.499390 
	C195.869247,217.216904 189.697708,212.929031 182.088058,208.337784 
	C183.355179,216.142502 183.741135,222.787201 185.809235,229.295837 
	C190.569016,227.772293 194.789383,226.421417 199.348755,224.499390 
z"/>
</svg>