<svg xmlns="http://www.w3.org/2000/svg" viewBox="0 0 400 600" fill="none">
  <path d="M205,175 c-5,-10 -15,-25 -25,-35 c0,0 5,-10 10,-15 c5,-5 15,0 20,5 c5,-10 15,-20 20,-20 c5,0 15,10 15,15 c0,5 -10,30 -10,30 c15,15 35,50 45,90 c10,40 5,80 -5,110 c-5,15 -10,25 -15,30 c30,0 60,10 85,35 c25,25 35,55 30,80 c-5,25 -25,40 -60,40 c-40,0 -90,-25 -125,-60 c-15,5 -30,5 -45,0 c-35,-15 -55,-55 -55,-100 c0,-45 25,-100 65,-140 c15,-15 30,-25 45,-35 c0,-15 5,-25 5,-30 Z M215,220 c-15,10 -35,35 -45,70 c-10,35 -5,75 10,105 c5,10 15,20 25,25 c5,-5 10,-15 10,-25 c0,-30 -15,-60 -15,-90 c0,-30 10,-60 15,-85 Z M265,480 c30,30 70,45 100,45 c20,0 30,-5 35,-15 c5,-10 -5,-30 -25,-50 c-20,-20 -50,-30 -80,-30 c10,15 5,35 -30,50 Z" 
    stroke="currentColor" 
    stroke-width="3" 
    stroke-linecap="round" 
    stroke-linejoin="round"/>
</svg>
